<svg enable-background="new 0 0 151 51" viewBox="0 0 151 51" xmlns="http://www.w3.org/2000/svg" xmlns:xlink="http://www.w3.org/1999/xlink"><g fill="none"><path d="m .5.5h50v50h-50z"/><path d="m50.5.5h50v50h-50z"/><path d="m100.5.5h50v50h-50z"/></g><path d="m136.006 34.356c-.461-1.517-4.19-3.572-5.924-4.328-.118-.051-.253-.049-.368.007l-4.204 2.032-3.768-2.024c-.113-.061-.248-.069-.368-.022-1.51.588-5.918 2.649-6.359 4.354-.315 1.217-.44 1.814-.446 1.839-.006.03-.009.06-.009.09 0 .598.301.881.553 1.013.371.194.816.178 1.275.169.098-.002.199-.004.3-.004h17.626c.132 0 .264.005.39.009.129.005.254.009.373.009.337 0 1.364 0 1.364-1.138-.001-.461-.044-.719-.435-2.006zm-.93 2.263c-.109 0-.223-.004-.341-.008-.137-.005-.279-.01-.421-.01h-17.626c-.107 0-.213-.002-.317 0-.094.002-.187 0-.276 0-.001 0-.002 0-.003 0-.121 0-.434.003-.571-.068-.027-.014-.072-.034-.079-.186.036-.164.166-.747.426-1.751.257-.995 3.392-2.774 5.638-3.679l3.785 2.033c.124.067.273.07.4.009l4.223-2.041c2.482 1.115 5.002 2.883 5.249 3.695.376 1.238.395 1.417.395 1.75.001.202.001.256-.482.256z"/><path d="m120.874 24.843c.238.594.509 1.02.794 1.468.08.127.162.255.245.39.286.469.576.821.899 1.087-.022.434-.076.968-.173 1.365-.058.236.086.475.323.533.236.058.475-.086.533-.323.132-.536.193-1.268.207-1.775.004-.149-.067-.289-.189-.374-.301-.208-.57-.517-.847-.972-.085-.14-.17-.273-.253-.404-.305-.48-.57-.895-.794-1.518-.058-.162-.227-.277-.399-.291-.043-.003-.159-.073-.222-.187-.445-.816-.635-2.064-.552-2.318.011-.007.061-.024.168-.023.125.01.24-.043.326-.13.086-.086.132-.205.128-.326-.093-2.528.837-3.887 1.635-4.582.146-.128.192-.336.112-.513-.005-.012-.011-.023-.017-.035.375-.253 1.007-.236 1.015-.234l.024-.44.363-.25c-.029-.066.03-.228.113-.375.25.209.584.358.897.445.905.251 1.562.509 1.969.688 1.878.744 2.9 2.675 2.803 5.296-.004.118.039.233.12.319s.193.136.312.138c.081.002.123.018.12.01.095.269-.096 1.518-.541 2.334-.063.115-.177.186-.221.192-.161.022-.297.131-.353.284-.228.616-.505 1.05-.798 1.51-.089.139-.179.281-.27.429-.267.439-.51.735-.765.931-.109.084-.172.214-.171.352.003.401.036 1.177.224 1.869.054.196.231.325.425.325.039 0 .077-.005.116-.016.235-.064.373-.307.309-.541-.137-.502-.178-1.083-.189-1.438.275-.251.534-.582.803-1.023.087-.143.174-.279.26-.414.275-.431.559-.876.803-1.475.242-.109.462-.312.599-.562.513-.941.809-2.452.598-3.049-.085-.241-.258-.417-.496-.514-.004-2.792-1.245-4.935-3.351-5.769-.418-.184-1.118-.46-2.074-.725-.42-.116-.623-.307-.644-.343-.019-.118-.086-.223-.184-.291s-.22-.094-.337-.07c-.385.077-.721.592-.854.92-.055.136-.09.269-.104.397-.583.082-1.4.363-1.626 1.185-.026.074-.034.154-.021.231-.764.854-1.492 2.245-1.495 4.441-.267.09-.461.273-.552.534-.212.596.084 2.106.598 3.047.147.27.388.479.651.58z"/><path d="m35.104 23.241-3.332 2.272v-4.59c0-.247-.2-.448-.448-.448h-11.649c-.248 0-.448.201-.448.448v4.59l-3.332-2.272c-.204-.139-.483-.087-.623.118s-.087.483.118.623l8.376 5.711c.486.331 1.11.497 1.733.497s1.247-.166 1.733-.497l8.376-5.711c.204-.139.257-.418.118-.623-.138-.205-.417-.257-.622-.118zm-8.376 5.711c-.666.454-1.79.454-2.456 0l-4.217-2.876c.04-.067.069-.141.069-.225v-4.48h10.753v4.48c0 .084.029.158.069.225z"/><path d="m36.915 21.522-9.722-7.478c-.455-.351-1.056-.544-1.693-.544s-1.238.193-1.693.544l-9.726 7.482c-.386.296-.678.904-.678 1.413v12.321c0 1.235 1.005 2.24 2.24 2.24h19.714c1.235 0 2.24-1.005 2.24-2.24v-12.321c0-.509-.293-1.118-.682-1.417zm-.214 13.738c0 .741-.603 1.344-1.344 1.344h-19.714c-.741 0-1.344-.603-1.344-1.344v-12.321c0-.228.162-.576.327-.703l9.726-7.482c.296-.227.714-.358 1.147-.358.434 0 .852.13 1.148.358l9.722 7.478c.167.129.332.479.332.707z"/><path d="m28.636 23.163h-6.273c-.248 0-.448.201-.448.448s.2.448.448.448h6.273c.248 0 .448-.201.448-.448 0-.248-.2-.448-.448-.448z"/><path d="m28.636 24.955h-6.273c-.248 0-.448.201-.448.448s.2.448.448.448h6.273c.248 0 .448-.201.448-.448s-.2-.448-.448-.448z"/><path d="m87.649 33.357c-.065-.438-.349-.824-.87-1.18l-5.367-3.673c-.277-.189-.599-.289-.932-.289-.518 0-1.004.245-1.301.657l-1.393 1.972c-.109.153-.135.341-.142.523-.533.078-2.077.031-4.612-2.503-2.451-2.447-3.611-4.247-3.461-5.358.027-.013.047-.04.071-.058.128-.035.245-.079.34-.153l1.924-1.457c.686-.518.821-1.525.299-2.248l-3.847-5.246c-.74-1.008-1.61-1.113-2.545-.311-.591.506-1.571 1.73-1.978 2.465-.223.394-.315.801-.276 1.21-.142.589-.452 2.326.064 4.748.701 3.292 2.597 6.453 5.635 9.394 5.08 4.915 9.542 5.649 11.75 5.65 1.298 0 2.204-.238 2.621-.414.388.016.771-.093 1.145-.317.724-.428 1.913-1.449 2.399-2.059.384-.475.54-.918.476-1.353zm-1.184.786c-.419.526-1.526 1.475-2.155 1.847-.085.051-.169.088-.253.119-.612-.266-1.69-.829-2.013-1.233-.156-.195-.442-.227-.638-.071-.196.157-.227.442-.071.638.285.356.83.711 1.328.988-.398.086-.951.162-1.655.162-2.07 0-6.268-.701-11.119-5.395-6.917-6.696-5.603-12.686-5.431-13.346.015-.059.019-.121.01-.181-.035-.24.016-.478.159-.731.355-.643 1.268-1.783 1.777-2.22.234-.202.442-.308.602-.308.068 0 .277 0 .62.467l3.845 5.243c.233.323.183.767-.113.99l-1.903 1.444c-.008.004-.021.008-.034.012-.502-.385-1.188-.966-1.405-1.297-.136-.21-.418-.268-.628-.132-.21.137-.269.418-.132.628.293.45 1.001 1.044 1.454 1.4-.361 1.478.787 3.451 3.679 6.339 2.305 2.304 3.984 2.787 4.988 2.787.44 0 .77-.098.931-.19.121-.069.204-.19.225-.328.009-.062.012-.151.013-.249.001-.054.002-.148.008-.2l1.362-1.927c.207-.288.669-.36.983-.146l5.367 3.672c.296.202.459.392.484.564.026.168-.07.388-.285.654z"/><path d="m74.982 18.726c3.509 1.072 6.254 3.803 7.344 7.306.06.194.24.319.433.319.045 0 .09-.007.135-.02.239-.074.373-.329.299-.568-1.179-3.79-4.15-6.745-7.946-7.904-.24-.075-.493.062-.566.301-.073.24.062.493.301.566z"/><path d="m75.605 15.365c5.261 1.244 9.283 5.483 10.247 10.801.04.219.231.373.446.373.027 0 .054-.002.081-.007.247-.045.41-.281.366-.528-1.028-5.672-5.319-10.195-10.931-11.522-.243-.055-.488.093-.546.337s.093.488.337.546z"/></svg>