<?xml version="1.0" encoding="iso-8859-1"?>
<!-- Generator: Adobe Illustrator 19.2.0, SVG Export Plug-In . SVG Version: 6.00 Build 0)  -->
<svg version="1.1" id="Layer_1" xmlns="http://www.w3.org/2000/svg" xmlns:xlink="http://www.w3.org/1999/xlink" x="0px" y="0px"
	 viewBox="0 0 479 467.755" style="enable-background:new 0 0 479 467.755;" xml:space="preserve">
<g>
	<g>
		<g>
			<path style="fill:#FFFFFF;" d="M479,233.878c0-11.267-13.579-20.909-23.952-30.746c-1.721-12.173-4.445-24.022-8.092-35.461
				c5.044-13.465,13.107-27.917,8.37-37.737c-4.814-9.979-21.195-12.719-34.845-17.11c-6.783-10.121-14.392-19.639-22.732-28.463
				c-1.269-14.293-0.299-30.857-8.913-37.735c-8.574-6.847-24.493-2.22-38.727-0.3c-10.402-6.148-21.357-11.454-32.777-15.827
				c-7.305-12.323-13.654-27.694-24.538-30.168C282.254-2.064,270,9.029,257.969,16.946c-6.09-0.512-12.247-0.787-18.469-0.787
				s-12.379,0.276-18.469,0.787c-12.031-7.917-24.284-19.01-34.825-16.614c-10.884,2.474-17.232,17.845-24.538,30.168
				c-11.419,4.373-22.375,9.679-32.776,15.827c-14.234-1.921-30.153-6.547-38.727,0.299c-8.613,6.878-7.643,23.442-8.913,37.735
				c-8.339,8.823-15.949,18.342-22.732,28.463c-13.65,4.39-30.031,7.131-34.845,17.11c-4.737,9.82,3.325,24.272,8.37,37.737
				c-3.648,11.439-6.371,23.288-8.092,35.461C13.579,212.969,0,222.611,0,233.878c0,11.267,13.579,20.909,23.952,30.746
				c1.721,12.173,4.445,24.022,8.092,35.461c-5.044,13.465-13.107,27.917-8.37,37.737c4.814,9.979,21.195,12.719,34.845,17.11
				c6.783,10.121,14.392,19.639,22.732,28.463c1.269,14.293,0.299,30.857,8.913,37.735c8.574,6.847,24.494,2.221,38.727,0.3
				c10.402,6.148,21.357,11.454,32.777,15.827c7.305,12.323,13.654,27.694,24.538,30.168c10.541,2.396,22.794-8.697,34.825-16.614
				c6.09,0.512,12.247,0.787,18.469,0.787s12.379-0.276,18.469-0.787c12.031,7.917,24.284,19.01,34.825,16.614
				c10.884-2.474,17.232-17.845,24.538-30.168c11.419-4.373,22.375-9.679,32.776-15.827c14.234,1.921,30.153,6.547,38.727-0.3
				c8.613-6.878,7.643-23.442,8.913-37.735c8.339-8.823,15.949-18.342,22.732-28.463c13.65-4.39,30.031-7.131,34.845-17.109
				c4.737-9.82-3.325-24.272-8.37-37.737c3.648-11.439,6.371-23.288,8.092-35.462C465.421,254.786,479,245.144,479,233.878z
				 M446.714,233.877c0,114.258-92.956,207.214-207.214,207.214c-114.258,0-207.214-92.956-207.214-207.214
				S125.242,26.664,239.5,26.664C353.758,26.664,446.714,119.619,446.714,233.877z"/>
		</g>
	</g>
	<g>
		<g>
			<path style="fill:#FFFFFF;" d="M170.933,210.543c0.796,0.641,1.436,1.316,1.923,2.024c0.485,0.709,0.874,1.568,1.165,2.578
				c0.485,1.689,0.728,3.865,0.728,6.525v24.41h-11.331v-23.915c0-3.748-1.903-5.622-5.709-5.622c-0.971,0-1.651,0.01-2.039,0.029
				v18.002c0,1.437-0.102,2.729-0.306,3.874c-0.204,1.146-0.583,2.243-1.136,3.292s-1.277,1.923-2.17,2.622
				c-1.942,1.515-4.806,2.272-8.593,2.272c-0.855,0-1.729-0.102-2.622-0.306c-0.894-0.204-1.564-0.403-2.01-0.597l-0.699-0.32
				v-8.127c1.456,0.272,2.689,0.408,3.699,0.408c1.01,0,1.684-0.238,2.024-0.714c0.34-0.476,0.51-1.277,0.51-2.403v-17.332
				l-4.02,0.32v-8.68c6.505-0.718,12.642-1.078,18.41-1.078C164.525,207.805,168.583,208.718,170.933,210.543z"/>
		</g>
		<g>
			<path style="fill:#FFFFFF;" d="M191.294,208.359h18.992v6.904l-4.952,16.807l0.029-0.029l-3.175,14.04h-11.127l3.292-14.419
				l4.34-14.594h-18.701v-16.167h11.302V208.359z"/>
		</g>
		<g>
			<path style="fill:#FFFFFF;" d="M245.736,210.543c0.796,0.641,1.436,1.316,1.923,2.024c0.485,0.709,0.874,1.568,1.165,2.578
				c0.485,1.689,0.728,3.865,0.728,6.525v24.41h-11.331v-23.915c0-3.748-1.903-5.622-5.709-5.622c-0.971,0-1.651,0.01-2.039,0.029
				v18.002c0,1.437-0.102,2.729-0.306,3.874c-0.203,1.146-0.583,2.243-1.135,3.292c-0.554,1.049-1.278,1.923-2.171,2.622
				c-1.942,1.515-4.806,2.272-8.593,2.272c-0.855,0-1.729-0.102-2.622-0.306c-0.894-0.204-1.564-0.403-2.01-0.597l-0.699-0.32
				v-8.127c1.456,0.272,2.689,0.408,3.699,0.408c1.01,0,1.684-0.238,2.025-0.714c0.339-0.476,0.509-1.277,0.509-2.403v-17.332
				l-4.02,0.32v-8.68c6.505-0.718,12.642-1.078,18.41-1.078S243.386,208.718,245.736,210.543z"/>
		</g>
		<g>
			<path style="fill:#FFFFFF;" d="M275.565,246.081h-16.545l-3.175-37.722h10.982l1.456,17.536c0.233,0,0.504-0.068,0.816-0.204
				c0.31-0.136,0.578-0.33,0.801-0.583c0.222-0.252,0.446-0.655,0.669-1.209c0.223-0.553,0.365-1.209,0.423-1.966l1.165-13.574
				h10.894l-1.136,13.428c-0.117,1.573-0.389,2.996-0.816,4.267c-0.428,1.272-0.928,2.321-1.501,3.146
				c-0.573,0.826-1.248,1.549-2.024,2.17c-0.777,0.622-1.515,1.088-2.214,1.398c-0.699,0.311-1.456,0.563-2.272,0.757
				c-1.165,0.272-2.389,0.408-3.67,0.408h-0.466l0.35,3.437h7.574c2.427,0,4.443-0.956,6.044-2.869
				c1.603-1.913,2.587-4.976,2.957-9.19l1.456-16.953h10.982l-1.544,17.215c-0.291,3.321-0.903,6.214-1.835,8.68
				c-0.932,2.466-2.035,4.442-3.306,5.928c-1.273,1.486-2.811,2.68-4.617,3.583s-3.608,1.515-5.403,1.835
				C279.812,245.921,277.798,246.081,275.565,246.081z"/>
		</g>
		<g>
			<path style="fill:#FFFFFF;" d="M313.374,208.359c0.679,1.146,1.116,2.428,1.311,3.845h0.408c0.33-0.388,0.883-0.869,1.66-1.442
				c0.776-0.573,1.539-1.053,2.286-1.442c0.747-0.388,1.719-0.743,2.913-1.063c1.195-0.32,2.593-0.481,4.195-0.481
				c1.603,0,3.136,0.287,4.602,0.859c1.466,0.573,2.666,1.345,3.598,2.316c0.932,0.971,1.68,2.195,2.243,3.67
				c1.029,2.622,1.544,6.03,1.544,10.224v21.235h-18.235v-8.71h6.729v-12.525c0-2.039-0.112-3.525-0.335-4.457
				c-0.224-0.932-0.501-1.621-0.831-2.068c-0.738-1.049-1.913-1.573-3.525-1.573c-0.68,0-1.34,0.131-1.981,0.393
				s-1.175,0.588-1.602,0.976c-0.932,0.835-1.564,1.534-1.893,2.097l-0.233,0.408l-2.185,25.459h-11.127l2.185-23.828
				c0.136-1.398,0.204-2.689,0.204-3.874c0-3.301-0.612-6.641-1.835-10.02H313.374z"/>
		</g>
	</g>
	<g>
		<g>
			<path style="fill:#FFFFFF;" d="M149.837,270.493v29.332h-8.818v-29.332c0-1.874-0.124-3.706-0.374-5.497
				c-0.249-1.791-0.503-3.109-0.76-3.956l-0.385-1.292h8.818c0.121,0.333,0.264,0.809,0.431,1.428
				c0.166,0.62,0.389,1.867,0.669,3.74C149.697,266.791,149.837,268.65,149.837,270.493z"/>
		</g>
		<g>
			<path style="fill:#FFFFFF;" d="M155.776,279.605v-19.857h8.795v13.691l-4.874,6.166H155.776z"/>
		</g>
		<g>
			<path style="fill:#FFFFFF;" d="M170.17,279.605v-19.857h8.795v13.691l-4.874,6.166H170.17z"/>
		</g>
		<g>
			<path style="fill:#FFFFFF;" d="M196.51,259.589c1.269-0.196,2.482-0.295,3.639-0.295s2.286,0.14,3.389,0.419
				c1.103,0.28,2.1,0.756,2.992,1.428c0.892,0.673,1.609,1.575,2.153,2.709c1.118,2.312,1.677,5.705,1.677,10.178
				c0,4.912-1.141,8.724-3.423,11.436s-5.523,4.069-9.725,4.069c-1.753,0-3.396-0.351-4.93-1.054
				c-1.534-0.703-2.868-1.704-4.001-3.004c-1.133-1.299-2.025-2.935-2.675-4.907s-0.975-4.152-0.975-6.54v-14.281h8.818v14.281
				c0,5.652,1.323,8.478,3.967,8.478c1.375,0,2.403-0.668,3.083-2.006c0.68-1.337,1.02-3.476,1.02-6.415s-0.295-4.979-0.884-6.12
				s-1.602-1.712-3.038-1.712l-1.088,0.113V259.589z"/>
		</g>
		<g>
			<path style="fill:#FFFFFF;" d="M229.605,289.103H216.73l-2.471-29.355h8.546l1.133,13.646c0.181,0,0.392-0.052,0.635-0.159
				c0.242-0.106,0.449-0.256,0.624-0.453c0.173-0.196,0.347-0.51,0.521-0.94s0.284-0.941,0.329-1.53l0.907-10.563h8.478
				l-0.884,10.45c-0.091,1.224-0.302,2.332-0.635,3.321c-0.333,0.99-0.722,1.806-1.168,2.448c-0.446,0.642-0.971,1.205-1.575,1.688
				c-0.605,0.484-1.179,0.846-1.723,1.088c-0.544,0.242-1.133,0.438-1.768,0.589c-0.907,0.212-1.859,0.317-2.856,0.317h-0.363
				l0.272,2.675h5.894c1.889,0,3.457-0.744,4.703-2.232c1.247-1.488,2.014-3.872,2.301-7.152l1.133-13.193h8.546l-1.201,13.397
				c-0.227,2.584-0.703,4.836-1.428,6.755c-0.725,1.92-1.584,3.457-2.572,4.613c-0.99,1.156-2.188,2.085-3.593,2.788
				c-1.405,0.703-2.808,1.179-4.205,1.428C232.911,288.979,231.343,289.103,229.605,289.103z"/>
		</g>
		<g>
			<path style="fill:#FFFFFF;" d="M251.865,259.657c1.209-0.242,2.743-0.363,4.602-0.363c1.859,0,3.355,0.174,4.488,0.521
				c1.133,0.348,2.047,0.812,2.743,1.394c0.695,0.582,1.258,1.303,1.688,2.165c0.431,0.861,0.725,1.749,0.885,2.664
				c0.158,0.914,0.238,1.931,0.238,3.048v10.835c0,1.421-0.087,2.898-0.261,4.432c-0.174,1.534-0.344,2.708-0.51,3.525l-0.249,1.224
				h-14.916v-6.778h6.868c0.181-0.74,0.272-1.541,0.272-2.403v-10.835c0-0.786-0.17-1.454-0.51-2.006
				c-0.341-0.552-0.896-0.828-1.666-0.828c-0.982,0-2.01,0.076-3.083,0.227l-0.589,0.068V259.657z"/>
		</g>
		<g>
			<path style="fill:#FFFFFF;" d="M270.612,259.771c3.083-0.317,5.799-0.476,8.149-0.476c2.349,0,4.193,0.113,5.531,0.34
				c1.337,0.227,2.455,0.582,3.355,1.065c0.898,0.484,1.639,1.028,2.221,1.632c0.581,0.605,1.027,1.357,1.337,2.256
				c0.31,0.899,0.522,1.799,0.635,2.698c0.114,0.899,0.17,1.96,0.17,3.185v18.633h-8.795V270.47c0-2.916-1.481-4.375-4.443-4.375
				c-2.237,0-4.957,0.166-8.16,0.499V259.771z"/>
		</g>
		<g>
			<path style="fill:#FFFFFF;" d="M306.835,289.103h-8.795v-29.355h8.795V289.103z"/>
		</g>
		<g>
			<path style="fill:#FFFFFF;" d="M338.412,259.748v10.677c0,0.937-0.057,1.749-0.17,2.437c-0.114,0.688-0.345,1.432-0.692,2.232
				c-0.68,1.663-2.192,2.932-4.534,3.808c2.886,4.564,5.047,7.964,6.483,10.201h-9.815l-7.956-13.238
				c-0.288,0.453-0.431,1.285-0.431,2.493v10.745h-8.772v-10.677c0-0.907,0.06-1.715,0.181-2.425c0.12-0.71,0.363-1.466,0.725-2.267
				c0.725-1.662,2.251-2.931,4.579-3.808c-1.92-3.007-4.08-6.399-6.483-10.178h9.793l5.848,9.929l2.085,3.264
				c0.242-0.529,0.363-1.345,0.363-2.448v-10.745H338.412z"/>
		</g>
	</g>
	<g>
		<line style="fill:#FFFFFF;" x1="139.5" y1="318.211" x2="339.5" y2="318.211"/>
		<path style="fill:#FFFFFF;" d="M339.5,319.711h-200c-0.829,0-1.5-0.671-1.5-1.5s0.671-1.5,1.5-1.5h200c0.828,0,1.5,0.671,1.5,1.5
			S340.328,319.711,339.5,319.711z"/>
	</g>
	<g>
		<line style="fill:#FFFFFF;" x1="138.134" y1="180.878" x2="198.134" y2="180.878"/>
		<path style="fill:#FFFFFF;" d="M198.134,182.377h-60c-0.829,0-1.5-0.671-1.5-1.5s0.671-1.5,1.5-1.5h60c0.829,0,1.5,0.671,1.5,1.5
			S198.962,182.377,198.134,182.377z"/>
	</g>
	<g>
		<line style="fill:#FFFFFF;" x1="278.134" y1="180.878" x2="338.134" y2="180.878"/>
		<path style="fill:#FFFFFF;" d="M338.134,182.377h-60c-0.828,0-1.5-0.671-1.5-1.5s0.672-1.5,1.5-1.5h60c0.828,0,1.5,0.671,1.5,1.5
			S338.962,182.377,338.134,182.377z"/>
	</g>
	<g>
		<line style="fill:#FFFFFF;" x1="138.134" y1="171.211" x2="198.134" y2="171.211"/>
		<path style="fill:#FFFFFF;" d="M198.134,172.711h-60c-0.829,0-1.5-0.671-1.5-1.5s0.671-1.5,1.5-1.5h60c0.829,0,1.5,0.671,1.5,1.5
			S198.962,172.711,198.134,172.711z"/>
	</g>
	<g>
		<line style="fill:#FFFFFF;" x1="278.134" y1="171.211" x2="338.134" y2="171.211"/>
		<path style="fill:#FFFFFF;" d="M338.134,172.711h-60c-0.828,0-1.5-0.671-1.5-1.5s0.672-1.5,1.5-1.5h60c0.828,0,1.5,0.671,1.5,1.5
			S338.962,172.711,338.134,172.711z"/>
	</g>
	<g>
		<line style="fill:#FFFFFF;" x1="138.134" y1="161.544" x2="198.134" y2="161.544"/>
		<path style="fill:#FFFFFF;" d="M198.134,163.044h-60c-0.829,0-1.5-0.671-1.5-1.5s0.671-1.5,1.5-1.5h60c0.829,0,1.5,0.671,1.5,1.5
			S198.962,163.044,198.134,163.044z"/>
	</g>
	<g>
		<line style="fill:#FFFFFF;" x1="278.134" y1="161.544" x2="338.134" y2="161.544"/>
		<path style="fill:#FFFFFF;" d="M338.134,163.044h-60c-0.828,0-1.5-0.671-1.5-1.5s0.672-1.5,1.5-1.5h60c0.828,0,1.5,0.671,1.5,1.5
			S338.962,163.044,338.134,163.044z"/>
	</g>
	<g>
		<g>
			<path style="fill:#FFFFFF;" d="M239.499,143.249c-14.87-13.543-14.87-26.72,0-40.266
				C254.372,116.529,254.372,129.706,239.499,143.249L239.499,143.249z M230.895,151.398c-14.483,9.287-25.371,6.368-33.269-8.917
				C212.109,133.194,222.995,136.111,230.895,151.398L230.895,151.398z M208.692,113.89c-2.301,13.26,3.106,20.221,16.522,21.277
				C227.515,121.907,222.107,114.946,208.692,113.89L208.692,113.89z M270.306,113.89c2.301,13.26-3.106,20.221-16.52,21.277
				C251.486,121.907,256.891,114.946,270.306,113.89L270.306,113.89z M281.375,142.48c-7.899,15.285-18.786,18.207-33.27,8.917
				C256.005,136.111,266.891,133.194,281.375,142.48L281.375,142.48z"/>
		</g>
		<g>
			<path style="fill:#FFFFFF;" d="M231.301,182.003c5.467,0,10.932,0,16.396,0c-4.834-5.577-5.594-11.732-5.95-17.523
				c-0.724-11.834,4.423-19.173,10.186-27.184c-9.139,9.108-10.423,12.497-12.434,12.497c-2.011,0-3.294-3.388-12.432-12.497
				c5.761,8.011,10.911,15.35,10.184,27.184C236.897,170.271,236.136,176.425,231.301,182.003L231.301,182.003z"/>
		</g>
	</g>
	<g>
		<g>
			<path style="fill:#FFFFFF;" d="M77.262,221.632c-1.4,0-2.1,1.97-2.1,5.908c0,1.66,0.175,2.954,0.524,3.882
				c0.351,0.928,0.858,1.392,1.526,1.392c1.399,0,2.1-1.758,2.1-5.273C79.313,223.602,78.629,221.632,77.262,221.632z"/>
		</g>
		<g>
			<path style="fill:#FFFFFF;" d="M38.747,177.112c-3.905,4-6.247,6.532-10.247,10.438v92.655c4,3.905,6.342,5.907,10.247,9.907
				h84.892l-21.1-56.5l21.1-56.5H38.747z M59.5,251.112h-9v-20.667l0.405-5.127c-1.84,1.904-3.195,3.386-4.204,4.443l-4.629-5.347
				l9.775-9.302H59.5V251.112z M85.88,243.873c-0.993,2.507-2.458,4.419-4.395,5.737c-2.116,1.433-4.874,2.148-8.129,2.148
				c-1.66,0-2.857-0.212-4.857-0.635v-6.421c2,0.439,3.261,0.659,4.32,0.659c2.945,0,5.016-1.465,6.14-4.395
				c0.342-0.895,0.62-2.042,0.799-3.442c-1.237,1.01-2.759,1.514-4.581,1.514c-2.67,0-4.736-0.992-6.208-2.979
				c-1.474-1.985-2.208-4.81-2.208-8.472c0-3.548,0.871-6.478,2.613-8.789c0.846-1.139,1.95-2.03,3.309-2.673
				c1.358-0.644,2.901-0.965,4.626-0.965c3.434,0,6.042,1.322,7.825,3.967c1.781,2.646,2.673,6.556,2.673,11.731
				C87.809,236.346,87.166,240.684,85.88,243.873z"/>
		</g>
		<g>
			<path style="fill:#FFFFFF;" d="M403.067,221.632c-1.4,0-2.1,1.97-2.1,5.908c0,1.66,0.175,2.954,0.524,3.882
				c0.351,0.928,0.858,1.392,1.526,1.392c1.399,0,2.1-1.758,2.1-5.273C405.118,223.602,404.435,221.632,403.067,221.632z"/>
		</g>
		<g>
			<path style="fill:#FFFFFF;" d="M427.359,234.108c-1.4,0-2.1,1.758-2.1,5.273c0,3.939,0.684,5.908,2.051,5.908
				c1.399,0,2.1-1.969,2.1-5.908c0-1.66-0.175-2.954-0.524-3.882C428.535,234.571,428.026,234.108,427.359,234.108z"/>
		</g>
		<g>
			<path style="fill:#FFFFFF;" d="M440.253,177.112h-84.892l21.1,56.5l-21.1,56.5h84.892c3.905-4,6.247-6.002,10.247-9.907V187.55
				C446.5,183.645,444.158,181.112,440.253,177.112z M411.686,243.873c-0.993,2.507-2.458,4.419-4.395,5.737
				c-2.116,1.433-4.776,2.148-8.031,2.148c-1.66,0-3.76-0.212-4.76-0.635v-6.421c2,0.439,3.164,0.659,4.223,0.659
				c2.945,0,4.968-1.465,6.091-4.395c0.342-0.895,0.595-2.042,0.775-3.442c-1.237,1.01-2.771,1.514-4.593,1.514
				c-2.67,0-4.742-0.992-6.214-2.979c-1.474-1.985-2.211-4.81-2.211-8.472c0-3.548,0.87-6.478,2.612-8.789
				c0.846-1.139,1.949-2.03,3.308-2.673c1.358-0.644,2.9-0.965,4.626-0.965c3.434,0,6.042,1.322,7.825,3.967
				c1.781,2.646,2.673,6.556,2.673,11.731C413.614,236.346,412.971,240.684,411.686,243.873z M435.196,248.121
				c-0.847,1.14-1.949,2.03-3.309,2.674c-1.358,0.643-2.901,0.964-4.626,0.964c-3.435,0-6.042-1.322-7.825-3.968
				c-1.781-2.645-2.673-6.555-2.673-11.73c0-5.484,0.643-9.822,1.929-13.013c0.992-2.506,2.457-4.419,4.395-5.737
				c2.115-1.432,4.586-2.148,7.842-2.148c1.66,0,3.571,0.212,4.571,0.635v6.421c-1-0.439-2.976-0.659-4.034-0.659
				c-2.946,0-4.873,1.465-5.996,4.395c-0.342,0.896-0.549,2.043-0.728,3.442c1.236-1.009,2.793-1.514,4.617-1.514
				c2.669,0,4.754,0.993,6.226,2.979c1.474,1.986,2.217,4.81,2.217,8.472C437.802,242.881,436.938,245.811,435.196,248.121z"/>
		</g>
	</g>
	<g>
		<g>
			<path style="fill:#FFFFFF;" d="M78.154,317.886c1.227-0.674,2.321-0.896,3.282-0.67c0.96,0.229,1.743,0.893,2.347,1.99
				c0.604,1.1,0.75,2.119,0.437,3.061c-0.312,0.939-1.087,1.75-2.325,2.43c-1.238,0.68-2.35,0.906-3.337,0.68
				c-0.987-0.227-1.781-0.887-2.382-1.98s-0.729-2.117-0.382-3.068C76.14,319.374,76.926,318.562,78.154,317.886z"/>
		</g>
		<g>
			<path style="fill:#FFFFFF;" d="M79.515,346.14c-0.314-0.408-0.606-0.924-0.876-1.543l1.909-1.469
				c0.428,0.75,0.671,1.162,0.729,1.236c1.021,1.328,2.322,1.385,3.901,0.17l11.886-9.141l-1.692-1.826l1.965-1.51
				c2.291,2.363,4.182,4.516,5.675,6.457c1.271,1.652,2.078,3.25,2.42,4.791c0.357,1.617,0.085,3.127-0.817,4.531
				c-0.472,0.732-1.121,1.416-1.948,2.053l-12.541,9.645l-1.79-2.328l12.568-9.666c2.48-1.906,2.445-4.52-0.105-7.836
				c-0.314-0.408-0.906-1.121-1.776-2.137l-11.747,9.033c-1.468,1.129-2.868,1.674-4.199,1.633
				C81.746,348.194,80.558,347.495,79.515,346.14z"/>
		</g>
		<g>
			<path style="fill:#FFFFFF;" d="M96.76,366.741l-1.973-2.15l16.709-15.328l1.973,2.15L96.76,366.741z"/>
		</g>
		<g>
			<path style="fill:#FFFFFF;" d="M118.117,359.011c-0.458-0.436-1.048-0.854-1.77-1.25l1.589-1.666
				c0.848,0.469,1.692,1.104,2.532,1.904c2.645,2.523,2.58,5.24-0.194,8.148l-7.912,8.291c-0.655,0.688-1.343,1.328-2.062,1.92
				c-0.72,0.594-1.276,1.01-1.667,1.252l-0.588,0.361l-7.555-7.207l1.565-1.641l5.672,5.412c0.776-0.475,1.613-1.182,2.511-2.123
				l7.742-8.113c0.971-1.018,1.454-1.967,1.45-2.846C119.419,360.651,118.982,359.837,118.117,359.011z"/>
		</g>
		<g>
			<path style="fill:#FFFFFF;" d="M118.242,376.687l9.637-11.51l2.237,1.873l-7.718,9.219l-3.698,0.803L118.242,376.687z"/>
		</g>
		<g>
			<path style="fill:#FFFFFF;" d="M135.133,373.536c-0.51-0.373-1.149-0.711-1.916-1.014l1.362-1.855
				c0.901,0.355,1.82,0.877,2.755,1.564c2.947,2.162,3.232,4.865,0.854,8.105L128.13,394.04l-1.941-1.426l1.999-3.287l-0.114-0.082
				c-0.13,0.078-0.387,0.195-0.77,0.35c-0.383,0.156-0.737,0.277-1.063,0.365s-0.72,0.158-1.181,0.213
				c-0.461,0.053-0.91,0.066-1.346,0.037c-0.437-0.029-0.902-0.129-1.397-0.295c-0.496-0.168-0.956-0.408-1.38-0.719
				c-0.888-0.652-1.504-1.199-1.849-1.641l1.921-1.904c0.307,0.414,0.908,0.949,1.806,1.609c0.661,0.484,1.566,0.727,2.715,0.727
				c1.38-0.018,2.671-0.451,3.875-1.299c0.695-0.492,1.324-1.121,1.886-1.887l4.399-5.994c0.839-1.143,1.192-2.148,1.059-3.016
				C136.625,374.989,136.087,374.237,135.133,373.536z"/>
		</g>
		<g>
			<path style="fill:#FFFFFF;" d="M142.782,403.732c-0.459-0.236-0.942-0.576-1.451-1.023l1.103-2.141
				c0.707,0.496,1.102,0.766,1.186,0.809c1.49,0.766,2.69,0.264,3.603-1.508l6.864-13.33l-2.309-0.932l1.135-2.203
				c3.079,1.162,5.707,2.305,7.884,3.426c1.854,0.955,3.264,2.057,4.229,3.305c1.012,1.312,1.409,2.795,1.19,4.449
				c-0.115,0.863-0.411,1.758-0.889,2.686l-7.242,14.064l-2.61-1.344l7.258-14.096c1.432-2.781,0.289-5.131-3.431-7.045
				c-0.458-0.236-1.298-0.629-2.518-1.178l-6.783,13.174c-0.847,1.646-1.882,2.734-3.104,3.266S144.303,404.515,142.782,403.732z"/>
		</g>
		<g>
			<path style="fill:#FFFFFF;" d="M181.739,395.923c2.08,0.762,3.41,1.959,3.991,3.594c0.581,1.637,0.468,3.555-0.337,5.756
				l-5.329,14.559l-7.263-2.658l0.78-2.131l4.522,1.656l4.508-12.314c1.188-3.246,0.297-5.412-2.674-6.5
				c-0.518-0.189-1.06-0.285-1.626-0.287c-0.567-0.002-1.068,0.061-1.501,0.189c-0.932,0.295-1.621,0.592-2.067,0.891l-0.295,0.191
				l-7.671,16.098l-2.757-1.008l7.546-15.807c0.016-0.045,0.06-0.166,0.133-0.363c0.072-0.199,0.181-0.732,0.325-1.604
				s0.197-1.613,0.16-2.227l-0.055-1.18l2.757,1.01c0.116,0.604,0.095,1.445-0.062,2.521l0.115,0.043
				c0.822-0.473,1.715-0.781,2.68-0.928c0.499-0.068,1.124-0.07,1.875-0.008C180.241,395.48,180.991,395.65,181.739,395.923z"/>
		</g>
		<g>
			<path style="fill:#FFFFFF;" d="M188.005,431.03l-2.822-0.668l5.116-21.623l2.823,0.668L188.005,431.03z M198.417,423.974
				l-0.138,0.582l-2.822-0.668l0.138-0.582c0.197-0.832,0.653-1.92,1.368-3.262c0.715-1.342,1.231-2.301,1.548-2.877
				c0.63-1.188,1.403-2.57,2.318-4.146l4.43-7.805l-13.394-3.168l0.518-2.189l16.233,3.84l-0.518,2.189l-4.63,8.117
				c-0.545,0.98-0.995,1.785-1.349,2.418c-0.355,0.633-0.712,1.277-1.071,1.932c-0.36,0.656-0.664,1.225-0.91,1.709
				c-0.247,0.484-0.5,0.99-0.757,1.52C198.865,422.642,198.544,423.439,198.417,423.974z"/>
		</g>
		<g>
			<path style="fill:#FFFFFF;" d="M211.998,427.026l-2.899-0.328l1.63-14.375l2.899,0.33L211.998,427.026z M227.23,410.021
				c0.199,0.848,0.239,1.791,0.122,2.826l-1.783,15.721l-2.899-0.33l1.787-15.754c0.353-3.109-1.556-4.9-5.724-5.373
				c-1.84-0.209-3.879-0.375-6.117-0.5l-1.231-0.068l0.279-2.463c2.733,0.133,5.226,0.328,7.479,0.584
				c2.253,0.256,4.069,0.807,5.447,1.652S226.848,408.398,227.23,410.021z"/>
		</g>
		<g>
			<path style="fill:#FFFFFF;" d="M235.337,428.841l-2.917-0.082l0.642-22.668l2.917,0.082L235.337,428.841z"/>
		</g>
		<g>
			<path style="fill:#FFFFFF;" d="M248.988,406.036c1.849-0.361,4.026-0.666,6.533-0.914c2.507-0.25,4.416,0.111,5.725,1.082
				c1.31,0.971,2.094,2.756,2.353,5.357l1.34,13.486l2.571-0.256l0.225,2.256l-16.495,1.639l-0.225-2.256l11.021-1.096l-1.344-13.52
				c-0.179-1.797-0.706-2.984-1.582-3.562s-2.159-0.783-3.85-0.615c-1.808,0.18-3.521,0.414-5.142,0.705l-0.885,0.158
				L248.988,406.036z"/>
		</g>
		<g>
			<path style="fill:#FFFFFF;" d="M275.38,425.591l-2.873,0.512l-3.979-22.324l2.873-0.512L275.38,425.591z"/>
		</g>
		<g>
			<path style="fill:#FFFFFF;" d="M296.847,420.487l-16.139,4.223l-0.574-2.193l9.354-2.447l3.926-0.828l-0.018-0.068l-7.67-6.188
				l-10.928-10.168l3.214-0.842l9.328,8.844l0.744,0.623c0.736-0.75,1.168-1.797,1.296-3.139c0.127-1.34,0.026-3.035-0.303-5.08
				l-0.654-4.025l2.823-0.74l0.581,3.609c0.019,0.117,0.067,0.41,0.148,0.879c0.08,0.471,0.138,0.84,0.172,1.109
				s0.082,0.66,0.143,1.17c0.062,0.512,0.086,0.953,0.074,1.326s-0.029,0.812-0.054,1.322s-0.097,0.973-0.217,1.393
				c-0.121,0.418-0.267,0.857-0.438,1.312c-0.332,0.863-0.91,1.662-1.735,2.398l6.352,5.316L296.847,420.487z"/>
		</g>
		<g>
			<path style="fill:#FFFFFF;" d="M299.624,411.366l-4.922-14.182l2.757-0.957l3.941,11.359l-1.212,3.584L299.624,411.366z"/>
		</g>
		<g>
			<path style="fill:#FFFFFF;" d="M304.652,393.554l6.63,8.248c0.909,1.238,2.828,3.822,5.756,7.752
				c2.623-2.551,3.09-6.318,1.401-11.299l-3.211-9.385l2.666-1.186l3.227,9.377c0.503,1.418,0.827,2.688,0.973,3.809
				c0.146,1.123,0.194,2.059,0.145,2.812s-0.203,1.578-0.458,2.475c-0.256,0.895-0.628,1.74-1.114,2.533
				c-0.487,0.795-1.156,1.611-2.008,2.451s-1.859,1.623-3.025,2.346l-5.571,3.479l-0.936-2.104l5.844-3.773l-13.08-16.307
				L304.652,393.554z"/>
		</g>
		<g>
			<path style="fill:#FFFFFF;" d="M341.727,395.04l0.438,0.203c0.365,1.141,0.71,2.52,1.036,4.141
				c0.325,1.619,0.583,3.17,0.775,4.652l-1.865,1.162c-0.399-1.285-0.902-2.746-1.508-4.383c-0.56-1.586-1.09-2.945-1.591-4.084
				L341.727,395.04z"/>
		</g>
		<g>
			<path style="fill:#FFFFFF;" d="M339.94,382.333c-1.305-1.889-2.941-3.535-4.908-4.941l2.401-1.658
				c0.203,0.131,0.476,0.324,0.816,0.58c0.34,0.256,0.944,0.811,1.812,1.664s1.628,1.754,2.28,2.697l13.887,20.105l-2.401,1.658
				L339.94,382.333z"/>
		</g>
		<g>
			<path style="fill:#FFFFFF;" d="M358.677,388.239l-2.322,1.768l-13.736-18.041l2.322-1.768L358.677,388.239z"/>
		</g>
		<g>
			<path style="fill:#FFFFFF;" d="M352.941,366.261c-0.477,0.416-0.946,0.965-1.407,1.646l-1.515-1.734
				c0.545-0.801,1.255-1.584,2.129-2.346c2.755-2.404,5.454-2.092,8.096,0.938l7.535,8.635c0.624,0.717,1.198,1.459,1.723,2.23
				c0.525,0.77,0.89,1.361,1.094,1.773l0.308,0.619l-7.868,6.865l-1.491-1.709l5.908-5.154c-0.401-0.816-1.029-1.715-1.885-2.695
				l-7.373-8.449c-0.925-1.061-1.824-1.629-2.699-1.705C354.693,365.112,353.843,365.474,352.941,366.261z"/>
		</g>
		<g>
			<path style="fill:#FFFFFF;" d="M360.399,356.62c0.479-0.734,1.059-1.457,1.74-2.168c0.682-0.709,1.396-1.283,2.141-1.721
				s1.46-0.73,2.146-0.877c0.685-0.146,1.38-0.193,2.086-0.143c0.705,0.053,1.362,0.18,1.972,0.383s1.211,0.469,1.807,0.797
				c1.03,0.551,1.981,1.244,2.852,2.08l2.776,2.666c0.508,0.488,1.011,1.061,1.509,1.717s0.885,1.26,1.161,1.811
				c0.276,0.549,0.517,1.227,0.72,2.029c0.202,0.805,0.272,1.586,0.209,2.346s-0.308,1.602-0.732,2.527
				c-0.425,0.924-1.006,1.771-1.744,2.539c-0.739,0.77-1.429,1.412-2.068,1.926c-0.641,0.516-1.12,0.854-1.44,1.018l-0.455,0.246
				l-1.901-1.826c1.418-0.768,2.76-1.809,4.026-3.129c0.495-0.514,0.869-1.053,1.123-1.613s0.398-1.088,0.435-1.582
				c0.035-0.492-0.011-1.004-0.137-1.531c-0.127-0.529-0.294-0.998-0.501-1.408c-0.208-0.41-0.456-0.818-0.746-1.229
				c-0.428-0.621-0.933-1.211-1.516-1.771l-2.485-2.387c-1.073-1.029-2.083-1.771-3.028-2.225c-0.41-0.199-0.893-0.365-1.446-0.5
				c-0.554-0.133-1.083-0.174-1.588-0.123c-0.504,0.053-1.05,0.223-1.637,0.512c-0.587,0.291-1.179,0.746-1.775,1.367
				c-0.596,0.621-1.13,1.283-1.601,1.984s-0.772,1.232-0.906,1.59l-0.2,0.539l-1.877-1.801c0.039-0.143,0.109-0.334,0.213-0.576
				C359.631,357.845,359.922,357.355,360.399,356.62z"/>
		</g>
		<g>
			<path style="fill:#FFFFFF;" d="M389.122,359.601c-0.314,0.408-0.737,0.822-1.268,1.242l-1.907-1.471
				c0.614-0.605,0.951-0.945,1.008-1.02c1.023-1.328,0.746-2.6-0.833-3.816l-11.877-9.152l-1.331,2.104l-1.964-1.514
				c1.699-2.818,3.296-5.197,4.79-7.137c1.273-1.652,2.611-2.842,4.013-3.566c1.473-0.758,3.003-0.881,4.59-0.369
				c0.828,0.27,1.656,0.721,2.482,1.357l12.531,9.656l-1.792,2.326l-12.56-9.678c-2.479-1.91-4.994-1.207-7.548,2.105
				c-0.314,0.408-0.852,1.164-1.611,2.266l11.737,9.045c1.467,1.129,2.352,2.344,2.653,3.641
				C390.538,356.919,390.167,358.245,389.122,359.601z"/>
		</g>
		<g>
			<path style="fill:#FFFFFF;" d="M397.021,324.845c-1.227-0.676-2.001-1.48-2.323-2.414c-0.322-0.932-0.182-1.949,0.424-3.047
				c0.604-1.098,1.388-1.768,2.349-2.008c0.962-0.24,2.062-0.02,3.298,0.662c1.237,0.682,2.024,1.5,2.361,2.453
				c0.337,0.955,0.205,1.98-0.397,3.072c-0.602,1.094-1.397,1.75-2.387,1.967C399.355,325.749,398.247,325.521,397.021,324.845z"/>
		</g>
	</g>
	<g>
		<g>
			<path style="fill:#FFFFFF;" d="M117.185,94.349c-0.901-1.071-1.334-2.101-1.299-3.088c0.035-0.986,0.533-1.883,1.492-2.69
				c0.959-0.807,1.931-1.149,2.915-1.026c0.983,0.122,1.93,0.723,2.838,1.804c0.909,1.081,1.349,2.128,1.32,3.14
				c-0.029,1.012-0.521,1.92-1.477,2.723c-0.955,0.804-1.933,1.129-2.935,0.977C119.038,96.033,118.086,95.421,117.185,94.349z"/>
		</g>
		<g>
			<path style="fill:#FFFFFF;" d="M153.764,63.034c0.654,0.574,1.235,1.317,1.742,2.229l7.686,13.828l-2.55,1.418l-7.703-13.859
				c-1.52-2.734-4.114-3.082-7.781-1.045c-1.619,0.9-3.375,1.949-5.268,3.149l-1.042,0.659l-1.204-2.166
				c2.301-1.48,4.443-2.771,6.425-3.873s3.78-1.708,5.393-1.82C151.075,61.441,152.509,61.935,153.764,63.034z M151.253,85.727
				l-2.55,1.417l-7.028-12.645l2.55-1.418L151.253,85.727z"/>
		</g>
		<g>
			<path style="fill:#FFFFFF;" d="M167.771,68.735l-5.88-13.812l2.685-1.143l4.709,11.062l-0.964,3.658L167.771,68.735z"/>
		</g>
		<g>
			<path style="fill:#FFFFFF;" d="M188.078,45.544l0.608,1.91c-2.09,1.391-2.728,3.365-1.913,5.922l4.74,14.873l-2.78,0.886
				l-4.74-14.872c-0.21-0.658-0.325-1.289-0.345-1.893c-0.02-0.602,0.032-1.096,0.156-1.479c0.251-0.794,0.531-1.344,0.839-1.651
				l0.197-0.192l-0.026-0.084l-11.824,3.769l-0.688-2.16L188.078,45.544z"/>
		</g>
		<g>
			<path style="fill:#FFFFFF;" d="M199.64,58.304l-3.196-14.667l2.851-0.621l2.56,11.747l-1.631,3.414L199.64,58.304z"/>
		</g>
		<g>
			<path style="fill:#FFFFFF;" d="M223.935,39.308l0.242,1.989c-2.313,0.978-3.308,2.798-2.984,5.462l1.883,15.496l-2.896,0.352
				l-1.883-15.496c-0.083-0.686-0.079-1.326,0.014-1.922c0.093-0.596,0.235-1.07,0.429-1.425c0.395-0.732,0.772-1.222,1.132-1.466
				l0.229-0.152l-0.011-0.086l-12.319,1.496l-0.273-2.251L223.935,39.308z"/>
		</g>
		<g>
			<path style="fill:#FFFFFF;" d="M232.919,53.993l-0.425-15.006l2.917-0.083l0.34,12.019l-2.235,3.053L232.919,53.993z"/>
		</g>
		<g>
			<path style="fill:#FFFFFF;" d="M258.96,39.583c1.881,0.086,4.069,0.303,6.565,0.65c2.495,0.35,4.265,1.149,5.309,2.401
				c1.044,1.253,1.385,3.173,1.023,5.761l-1.874,13.422l2.559,0.357l-0.313,2.246l-16.417-2.293l0.313-2.246l10.969,1.532
				l1.879-13.457c0.249-1.788,0.017-3.065-0.698-3.834c-0.716-0.769-1.914-1.271-3.597-1.505c-1.8-0.252-3.521-0.426-5.163-0.525
				l-0.897-0.055L258.96,39.583z"/>
		</g>
		<g>
			<path style="fill:#FFFFFF;" d="M287.627,65.989c2.293,0.674,4.444,0.409,6.454-0.795c2.009-1.205,3.674-3.471,4.994-6.795
				l3.647-9.225l2.782,0.818l-3.613,9.234c-0.543,1.428-1.154,2.656-1.835,3.684s-1.312,1.844-1.893,2.448s-1.282,1.171-2.104,1.699
				s-1.687,0.927-2.596,1.196c-0.91,0.271-1.965,0.396-3.163,0.381c-1.198-0.017-2.455-0.219-3.771-0.605l-7.218-2.123l4.594-22.285
				l2.833,0.834l-2.564,12.456l2.462-0.082c1.896-0.054,3.351-1.323,4.363-3.811l2.637-6.535l2.8,0.823l-2.238,5.553
				c-0.304,0.742-0.607,1.4-0.911,1.977s-0.694,1.155-1.17,1.736c-0.477,0.58-0.986,1.059-1.531,1.437s-1.204,0.679-1.979,0.902
				s-1.62,0.317-2.537,0.28l-2.366-0.055l-1.104,5.373L287.627,65.989z"/>
		</g>
		<g>
			<path style="fill:#FFFFFF;" d="M308.436,75.878l-2.684-1.146l8.901-20.855l2.684,1.146L308.436,75.878z"/>
		</g>
		<g>
			<path style="fill:#FFFFFF;" d="M335.738,63.825c1.935,1.078,3.061,2.471,3.378,4.177c0.316,1.706-0.096,3.583-1.236,5.63
				l-7.547,13.543l-6.756-3.766l1.104-1.98l4.207,2.345l6.384-11.454c1.683-3.02,1.143-5.301-1.622-6.841
				c-0.48-0.269-1.001-0.447-1.562-0.538c-0.56-0.091-1.063-0.106-1.512-0.048c-0.967,0.146-1.694,0.331-2.182,0.556l-0.321,0.143
				l-10.101,14.695l-2.564-1.429l9.932-14.428c0.022-0.041,0.086-0.153,0.188-0.338s0.293-0.694,0.572-1.532
				c0.278-0.838,0.447-1.562,0.507-2.173l0.131-1.175l2.564,1.43c0.02,0.614-0.133,1.441-0.458,2.481l0.107,0.06
				c0.886-0.338,1.817-0.503,2.793-0.496c0.503,0.012,1.12,0.107,1.852,0.287S335.042,63.438,335.738,63.825z"/>
		</g>
		<g>
			<path style="fill:#FFFFFF;" d="M355.841,89.327c0.901-1.072,1.841-1.676,2.819-1.811c0.978-0.135,1.947,0.202,2.907,1.009
				c0.959,0.808,1.463,1.706,1.512,2.695c0.048,0.989-0.382,2.024-1.291,3.106c-0.909,1.08-1.864,1.693-2.866,1.838
				s-1.981-0.184-2.937-0.987s-1.443-1.711-1.464-2.724C354.5,91.441,354.94,90.399,355.841,89.327z"/>
		</g>
	</g>
	<g>
		<g>
			<path style="fill:#FFFFFF;" d="M239.5,391.377c-76.757,0-140.816-56.265-154.355-128.265h-6.108
				c13.613,76,80.387,134.265,160.463,134.265c80.077,0,146.85-58.265,160.463-134.265h-6.108
				C380.316,335.112,316.257,391.377,239.5,391.377z"/>
		</g>
		<g>
			<path style="fill:#FFFFFF;" d="M239.5,77.377c76.923,0,141.096,54.735,154.446,128.735h6.096
				c-13.422-77-80.3-134.735-160.541-134.735c-80.24,0-147.119,57.735-160.541,134.735h6.096
				C98.404,132.112,162.577,77.377,239.5,77.377z"/>
		</g>
		<g>
			<path style="fill:#FFFFFF;" d="M239.5,382.877c-72.054,0-132.277-51.765-145.7-119.765h-3.055
				c13.465,69,75.04,122.765,148.754,122.765c73.714,0,135.289-53.765,148.754-122.765h-3.055
				C371.777,331.112,311.554,382.877,239.5,382.877z"/>
		</g>
		<g>
			<path style="fill:#FFFFFF;" d="M239.5,82.877c-73.88,0-135.566,52.235-148.845,123.235h3.055
				c13.237-69,73.57-120.235,145.79-120.235c72.219,0,132.552,51.235,145.79,120.235h3.055
				C375.066,135.112,313.379,82.877,239.5,82.877z"/>
		</g>
	</g>
</g>
</svg>
