<svg style="position: absolute; width: 0; height: 0;" width="0" height="0" version="1.1" xmlns="http://www.w3.org/2000/svg" xmlns:xlink="http://www.w3.org/1999/xlink">
<defs>
<symbol id="icon-truck" viewBox="0 0 1986 1024">
<path class="path1" d="M321.219 757.412c-71.547 0-121.672 58.358-111.985 130.724 9.656 72.274 75.633 131.174 147.333 131.174 71.731 0 121.969-58.798 112.108-131.174-9.861-72.407-75.93-130.724-147.456-130.724z"></path>
<path class="path2" d="M1252.168 761.989c-71.516 0-121.221 58.573-110.868 130.857 10.353 72.264 77.066 131.041 148.787 131.144 71.731 0 121.221-58.88 110.653-131.144-10.527-72.284-77.056-130.857-148.572-130.857z"></path>
<path class="path3" d="M1556.92 814.94h309.207l17.428 73.257h-437.289c-10.045-58.368-46.828-109.64-95.672-140.902 65.434 0 130.929 0 196.342 0 3.359 22.6 6.656 45.107 9.984 67.645z"></path>
<path class="path4" d="M62.321 528.896c29.123-87.48 58.204-174.848 87.235-262.124 67.072 0 133.96 0 200.878 0 66.888 0 133.806-0.020 200.704-0.020 13.353 96.594 26.696 193.27 40.069 290.079 8.745 63.355 17.521 126.956 26.296 190.495 55.757 0 111.565 0 167.281 0 121.549 0 243.046-0.020 364.595-0.020-39.229 30.771-61.051 80.978-55.173 138.24-96.707 0.010-193.372 0.010-290.079 0.010-96.43 0-193.014 0-289.536 0-14.623-96.983-103.455-174.981-199.7-174.981s-164.045 77.998-152.484 174.981c-40.735 0-81.418 0-122.153 0-6.052-46.152-12.134-92.191-18.186-138.24-7.363-55.808-14.715-111.657-22.067-167.444 20.879-16.927 41.615-33.966 62.321-50.975z"></path>
<path class="path5" d="M1917.061 337.009l33.29 122.839h-446.73c7.537 50.924 15.073 101.857 22.641 152.873h317.768l17.428 73.257-1188.844-0.768c-15.923-114.79-31.785-229.243-47.698-343.603-15.8-114.033-31.57-227.86-47.37-341.586 143.104 0 286.228 0 429.179-0.020 142.95 0 285.932 0 428.882 0 5.847 39.485 11.684 79.104 17.521 118.6h515.656l17.469 73.257h-522.281c1.208 8.192 2.417 16.394 3.656 24.576h243.19l17.428 73.277h-249.795c2.335 15.78 4.659 31.488 6.994 47.288h431.616z"></path>
</symbol>
<symbol id="icon-plant4" viewBox="0 0 696 1024">
<path class="path1" d="M502.661 1024c102.451-139.223 99.881-330.353 99.881-330.353h-508.611c0 0-2.56 191.13 99.891 330.353h308.838z"></path>
<path class="path2" d="M621.65 665.539c0 5.161-3.441 9.339-7.68 9.339h-531.456c-4.239 0-7.68-4.178-7.68-9.339v-84.326c0-5.161 3.441-9.359 7.68-9.359h531.466c4.239 0 7.68 4.188 7.68 9.359v84.326z"></path>
<path class="path3" d="M348.477 618.793c0 0-17.756-119.798 72.284-198.676 77.251-67.676 198.574-30.003 198.574-30.003s-78.92 10.67-167.967 83.046c-60.57 49.234-102.892 145.633-102.892 145.633z"></path>
<path class="path4" d="M348.406 610.867c0 0 43.090-113.193 160.184-137.974 100.485-21.268 187.894 70.902 187.894 70.902s-74.066-29.276-187.126-9.667c-76.902 13.332-160.952 76.739-160.952 76.739z"></path>
<path class="path5" d="M348.017 618.793c0 0 17.756-119.798-72.284-198.676-77.261-67.676-198.584-30.003-198.584-30.003s78.92 10.67 167.967 83.046c60.57 49.234 102.902 145.633 102.902 145.633z"></path>
<path class="path6" d="M348.088 610.867c0 0-43.090-113.193-160.184-137.974-100.495-21.268-187.904 70.902-187.904 70.902s74.066-29.276 187.136-9.667c76.902 13.332 160.952 76.739 160.952 76.739z"></path>
<path class="path7" d="M290.744 410.327c41.032 110.858 61.194 206.95 61.194 206.95s16.466-104.090-12.913-218.993c-30.956-121.068-133.007-129.055-133.007-129.055s51.395 51.057 84.726 141.097z"></path>
<path class="path8" d="M405.75 410.327c-41.032 110.858-61.184 206.95-61.184 206.95s-16.476-104.090 12.913-218.993c30.956-121.068 132.997-129.055 132.997-129.055s-51.395 51.057-84.726 141.097z"></path>
<path class="path9" d="M390.275 130.775c0.152 23.792-19.012 43.203-42.804 43.355s-43.203-19.012-43.355-42.804c-0.152-23.792 19.012-43.203 42.804-43.355s43.203 19.012 43.355 42.804z"></path>
<path class="path10" d="M365.353 41.902c0.154 23.204-18.463 42.148-18.463 42.148s-18.852-18.698-18.995-41.902c-0.154-23.214 18.452-42.148 18.452-42.148s18.862 18.698 19.005 41.902z"></path>
<path class="path11" d="M317.737 44.646c11.725 20.019 5.089 45.722 5.089 45.722s-25.682-6.758-37.407-26.788c-11.735-20.019-5.089-45.722-5.089-45.722s25.672 6.758 37.407 26.788z"></path>
<path class="path12" d="M278.323 70.994c20.173 11.479 27.269 37.059 27.269 37.059s-25.61 6.994-45.783-4.485c-20.173-11.469-27.269-37.059-27.269-37.059s25.61-6.984 45.783 4.485z"></path>
<path class="path13" d="M257.935 113.070c23.204-0.154 42.138 18.452 42.138 18.452s-18.698 18.852-41.902 18.995c-23.214 0.154-42.148-18.452-42.148-18.452s18.708-18.852 41.912-18.995z"></path>
<path class="path14" d="M260.751 160.154c20.040-11.735 45.732-5.079 45.732-5.079s-6.769 25.672-26.788 37.407c-20.019 11.745-45.722 5.079-45.722 5.079s6.758-25.682 26.778-37.407z"></path>
<path class="path15" d="M287.171 199.291c11.479-20.183 37.069-27.269 37.069-27.269s6.963 25.61-4.495 45.773c-11.479 20.183-37.069 27.269-37.069 27.269s-6.973-25.61 4.495-45.773z"></path>
<path class="path16" d="M329.185 220.201c-0.154-23.194 18.452-42.138 18.452-42.138s18.852 18.688 19.005 41.892c0.143 23.204-18.463 42.148-18.463 42.148s-18.852-18.688-18.995-41.902z"></path>
<path class="path17" d="M376.453 217.078c-11.745-20.029-5.089-45.732-5.089-45.732s25.672 6.769 37.407 26.778c11.725 20.040 5.079 45.722 5.079 45.722s-25.651-6.748-37.396-26.767z"></path>
<path class="path18" d="M416.123 190.464c-20.173-11.459-27.259-37.048-27.259-37.048s25.61-6.984 45.783 4.495c20.173 11.469 27.259 37.048 27.259 37.048s-25.6 6.973-45.783-4.495z"></path>
<path class="path19" d="M436.47 148.081c-23.224 0.154-42.158-18.442-42.158-18.442s18.688-18.852 41.902-19.005c23.214-0.154 42.148 18.452 42.148 18.452s-18.698 18.852-41.892 18.995z"></path>
<path class="path20" d="M433.562 101.284c-20.019 11.735-45.732 5.089-45.732 5.089s6.758-25.682 26.788-37.407c20.029-11.725 45.732-5.089 45.732-5.089s-6.758 25.672-26.788 37.407z"></path>
<path class="path21" d="M407.388 61.901c-11.469 20.163-37.048 27.259-37.048 27.259s-6.984-25.61 4.485-45.783c11.469-20.173 37.059-27.259 37.059-27.259s6.973 25.61-4.495 45.783z"></path>
<path class="path22" d="M343.091 219.535h10.22v354.898h-10.22v-354.898z"></path>
</symbol>
<symbol id="icon-plant3" viewBox="0 0 826 1024">
<path class="path1" d="M596.388 1024c121.559-165.202 118.508-391.956 118.508-391.956h-603.443c0 0-3.041 226.755 118.518 391.956h366.418z"></path>
<path class="path2" d="M737.587 598.692c0 6.124-4.096 11.080-9.134 11.080h-630.548c-5.038 0-9.124-4.956-9.124-11.080v-100.055c0-6.134 4.086-11.1 9.124-11.1h630.559c5.038 0 9.134 4.977 9.134 11.1v100.055z"></path>
<path class="path3" d="M413.45 543.232c0 0-21.064-142.141 85.75-235.735 91.668-80.282 235.622-35.594 235.622-35.594s-93.635 12.657-199.301 98.529c-71.854 58.419-122.071 172.8-122.071 172.8z"></path>
<path class="path4" d="M413.358 533.821c0 0 51.128-134.298 190.065-163.707 119.214-25.231 222.935 84.132 222.935 84.132s-87.869-34.734-222.034-11.469c-91.238 15.821-190.966 91.044-190.966 91.044z"></path>
<path class="path5" d="M412.918 543.232c0 0 21.053-142.141-85.76-235.735-91.668-80.282-235.612-35.594-235.612-35.594s93.635 12.657 199.291 98.529c71.864 58.419 122.081 172.8 122.081 172.8z"></path>
<path class="path6" d="M413 533.821c0 0-51.118-134.298-190.065-163.707-119.214-25.221-222.935 84.132-222.935 84.132s87.869-34.734 222.034-11.469c91.238 15.821 190.966 91.044 190.966 91.044z"></path>
<path class="path7" d="M344.955 295.895c48.691 131.523 72.602 245.535 72.602 245.535s19.528-123.494-15.329-259.83c-36.721-143.626-157.798-153.098-157.798-153.098s60.979 60.559 100.526 167.393z"></path>
<path class="path8" d="M481.403 295.895c-48.691 131.523-72.591 245.535-72.591 245.535s-19.548-123.494 15.309-259.83c36.741-143.626 157.819-153.098 157.819-153.098s-60.979 60.559-100.536 167.393z"></path>
<path class="path9" d="M438.723 163.154c0 90.122-25.539 195.932-25.539 195.932s-25.539-105.81-25.539-195.932c0-90.102 25.539-163.154 25.539-163.154s25.539 73.052 25.539 163.154z"></path>
</symbol>
<symbol id="icon-plant2" viewBox="0 0 915 1024">
<path class="path1" d="M222.536 566.231h469.996v123.556h-469.996v-123.556z"></path>
<path class="path2" d="M601.989 1024h-288.911l-67.328-320.041h423.578z"></path>
<path class="path3" d="M421.683 358.339c0.481 164.434 31.16 237.025 31.171 237.036 0.010 0.031 30.188-92.293 29.727-256.717-0.481-164.403-31.457-338.657-31.447-338.657 0.010 0.020-29.921 193.915-29.45 358.339z"></path>
<path class="path4" d="M450.652 171.069c1.26-0.379 2.376 80.722 2.54 181.176 0.123 100.413-0.748 182.262-2.007 182.651-1.28 0.461-2.458-80.701-2.591-181.156z"></path>
<path class="path5" d="M308.511 469.811c139.612 46.756 153.262 133.693 153.958 129.188-2.724 1.505-66.959-21.289-180.378-55.583-112.978-41.472-280.699-26.819-281.938-22.098-5.898-3.174 163.84-101.407 308.357-51.507z"></path>
<path class="path6" d="M280.422 505.938c85.903 21.504 141.23 63.519 142.356 61.491 1.198-0.645-53.166-45.537-140.38-67.564-86.927-22.907-166.277-9.155-165.622-7.608-0.358 2.038 78.080-8.765 163.645 13.681z"></path>
<path class="path7" d="M382.648 435.405c95.242 90.962 64.573 156.058 68.966 153.446-3.584 1.188-33.382-45.804-128.85-116.060-94.73-75.878-261.345-97.096-261.458-93.676-1.024 1.423 54.036-18.801 122.634-15.124 68.413 1.567 150.364 27.013 198.707 71.414z"></path>
<path class="path8" d="M338.371 446.822c69.519 49.234 94.392 104.315 96.143 102.984 0.891 0.563-21.688-55.921-91.249-106.189-68.844-51.026-153.682-62.751-154.061-61.061-2.038 1.28 80.415 14.377 149.166 64.266z"></path>
<path class="path9" d="M452.291 408.699c23.204 112.415-15.237 161.341-10.332 161.761-1.659 1.024 3.789-57.426-50.831-160.614-53.821-102.892-144.456-198.41-142.705-198.748 4.168-8.755 184.822 75.653 203.868 197.601z"></path>
<path class="path10" d="M414.423 396.718c32 71.137 29.348 131.072 30.495 130.744 0.154 0.553 5.161-59.146-25.283-130.929-29.655-72.018-83.907-120.504-85.443-119.665-2.755 0.328 49.101 48.589 80.23 119.849z"></path>
<path class="path11" d="M606.556 469.811c-139.612 46.735-153.283 133.663-153.958 129.188 2.724 1.516 66.97-21.309 180.367-55.583 112.978-41.462 280.709-26.767 281.948-22.098 5.888-3.164-163.809-101.427-308.357-51.507z"></path>
<path class="path12" d="M634.644 505.938c-85.873 21.514-141.199 63.478-142.356 61.491-1.198-0.625 53.156-45.558 140.37-67.564 86.938-22.876 166.277-9.155 165.622-7.608 0.389 2.058-78.070-8.796-163.635 13.681z"></path>
<path class="path13" d="M532.419 435.405c-95.242 90.952-64.573 156.058-68.966 153.446 3.625 1.188 33.382-45.804 128.86-116.060 94.71-75.878 261.345-97.096 261.448-93.676 1.004 1.393-54.057-18.801-122.655-15.114-68.413 1.556-150.374 26.972-198.687 71.404z"></path>
<path class="path14" d="M576.696 446.822c-69.499 49.203-94.413 104.325-96.133 102.984-0.901 0.553 21.688-55.921 91.249-106.189 68.884-51.005 153.692-62.73 154.071-61.051 2.048 1.29-80.404 14.346-149.187 64.256z"></path>
<path class="path15" d="M446.013 420.065c-15.165 112.742 26.429 161.628 21.074 162.488 1.311 1.178-5.263-56.003 48.804-158.751 53.78-101.673 132.516-203.11 129.925-204.001 1.597 0.307-51.067 12.493-98.447 49.152-48.66 35.021-92.047 94.505-101.356 151.112z"></path>
<path class="path16" d="M488.448 408.678c-29.358 71.598-24.75 131.41-25.928 130.98-0.205 0.44-7.537-59.085 19.958-131.389 26.655-72.499 78.858-122.051 80.876-120.996 3.113 0.512-46.377 49.695-74.906 121.405z"></path>
</symbol>
<symbol id="icon-plant1" viewBox="0 0 928 1024">
<path class="path1" d="M375.030 511.355c-19.743-162.918-49.091-131.205-172.052-200.223-194.15-109.005-219.566-198.728-166.861-279.337 17.725-27.126 105.38-73.441 244.582 47.36 66.222 57.467 94.833 132.188 107.069 190.577 4.772-24.863 7.731-61.164-2.14-101.007-18.176-73.359 25.313-142.848 25.313-142.848s-9.656 60.539-5.069 93.174c4.588 32.635 4.966 39.762 4.966 39.762s6.226-17.48 3.441-43.059c-2.785-25.58 3.891-34.509 3.891-34.509s10.957 18.002 12.165 40.806c1.208 22.804-5.765 53.187-5.765 53.187s16.507-12.308 16.937-58.071c0.44-45.763-9.021-62.413-9.021-62.413s30.392 34.13 20.808 96.092c-9.585 61.962-30.29 48.773-25.846 105.708 1.167 14.961 1.618 27.689 1.393 38.707 93.153-172.657 209.121-212.306 295.537-219.822 178.504-15.514 279.429 194.58-15.544 272.548-71.66 18.944-196.977 39.823-252.436 59.699-29.041 10.414-14.94 73.452-11.796 122.286 4.311 66.877 4.495 85.934 49.797 75.151s168.090-1.802 200.448 62.915c32.358 64.717 34.519 84.132 112.179 75.51 77.66-8.632 120.812 99.236 120.812 99.236s-60.406-86.292-140.227-77.66c-64.031 6.922-83.64-4.219-102.257-32.276-2.601 6.492-6.093 13.292-10.568 20.326-23.276 36.577 0 103.076 0 103.076s-33.249-49.879-19.958-106.404c6.236-26.511 1.505-48.64-5.284-64.655-39.885-31.826-111.831-51.569-139.878-48.067-34.519 4.311-60.764 24.443-60.764 24.443s-5.939 68.854 88.986 131.42c94.935 62.566-41.503 231.014-41.503 231.014s94.464-150.016 14.643-210.422l-0.010-0.010c3.645 13.343 2.724 33.843-19.118 59.32-39.905 46.551-36.577 79.811-36.577 79.811s-13.302-33.249 9.974-86.456c18.391-42.025 7.721-65.382 0.788-91.361-50.074-48.753-75.418-93.88-75.418-93.88s-28.088 14.049-46.807 49.029c12.421 17.92 43.653 68.751 38.298 119.593-6.656 63.181 13.302 146.309 13.302 146.309s-43.223-73.155-36.577-139.663c4.71-47.084-15.575-77.496-27.832-91.249-1.341 6.124-2.355 12.626-2.949 19.538-6.472 75.51 21.576 112.179 21.576 112.179s-92.764-47.462-62.566-133.755c30.198-86.292 36.669-94.925 36.669-94.925s-55.726-7.731-116.040 42.342c-1.966 15.022-5.161 44.8-5.161 79.36 0 49.879 16.62 139.663 16.62 139.663s-39.905-43.223-36.577-106.404c1.751-33.229-5.693-57.262-13.158-72.581-59.924 78.746 40.161 68.014-29.071 122.563-71.158 56.074-58.214 140.216-58.214 140.216s-43.151-81.981 12.943-129.444c56.084-47.462 25.887-49.613 10.783-101.396-15.104-51.773 40.991-110.019 107.868-122.972 66.877-12.943 86.292-32.358 86.292-32.358s-34.519-45.302-168.264 6.472c-133.755 51.773-90.604 105.708-81.981 142.377s-25.887 51.773-25.887 51.773 21.576-40.991-8.632-69.038c-30.198-28.047-28.047-127.283 122.962-166.113 173.629-44.626 256.522 81.756 236.769-81.162z"></path>
</symbol>
<symbol id="icon-phone" viewBox="0 0 1024 1024">
<path  class="path1" d="M512 0c-282.767 0-512 229.233-512 512s229.233 512 512 512c282.778 0 512-229.233 512-512s-229.222-512-512-512zM647.352 823.316c-43.561-3.297-327.578-71.506-447.191-409.344-24.218-70.84 5.714-185.078 86.753-210.586 82.217-26.563 124.293 88.31 136.264 160.942l-71.721 71.649c0 0-2.028 44.78 96.123 142.93 98.038 98.089 142.889 96.092 142.889 96.092l83.333-83.261c52.664 11.11 158.208 78.172 158.208 78.172-13.117 99.021-80.261 164.444-184.658 153.405z"></path>
</symbol>
<symbol id="icon-fax" viewBox="0 0 1092 1024">
<path  class="path1" d="M273.070 819.2v204.8h546.13v-341.33h-546.13v136.53zM341.33 750.93h409.6v68.27h-409.6v-68.27zM341.33 887.47h409.6v68.27h-409.6v-68.27z"></path>
<path fill="#40c1ac" class="path2" d="M819.2 204.8v-204.8h-546.13v341.33h546.13z"></path>
<path fill="#40c1ac" class="path3" d="M955.73 204.8h-68.27v204.8h-682.66v-204.8h-68.27c-68.26 0-136.53 68.27-136.53 136.53v341.33c0 68.27 68.27 136.54 136.53 136.54h68.27v-204.8h682.67v204.8h68.27c68.27 0 136.53-68.27 136.53-136.53v-341.34c0-68.26-68.27-136.53-136.54-136.53z"></path>
</symbol>
<symbol id="icon-mouse" viewBox="0 0 625 1024">
<path class="path1" d="M312.402 156.129c-18.708 0-33.874 15.165-33.874 33.874v144.097c0 18.708 15.165 33.874 33.874 33.874s33.874-15.165 33.874-33.874v-144.097c0-18.708-15.155-33.874-33.874-33.874z"></path>
<path class="path2" d="M346.276 0h-67.748c-154.911 7.864-278.528 136.366-278.528 293.202v437.596c0 156.836 123.617 285.338 278.528 293.202h67.748c154.921-7.864 278.528-136.366 278.528-293.202v-437.606c0-156.826-123.607-285.327-278.528-293.192zM293.581 67.369h37.642c124.529 0 225.833 101.315 225.833 225.833v87.429c-71.148 43.889-139.438 70.666-244.664 70.666-105.206 0-173.507-26.767-244.644-70.646v-87.46c0-124.508 101.304-225.823 225.833-225.823zM293.581 956.252c-124.529 0-225.833-101.304-225.833-225.833v-271.524c68.516 37.028 142.008 60.16 244.644 60.16 102.676 0 176.159-23.153 244.664-60.18v271.544c0 124.529-101.304 225.833-225.833 225.833h-37.642z"></path>
</symbol>
</defs>
</svg>
